<svg xmlns="http://www.w3.org/2000/svg" width="500" height="85" xml:space="preserve"><path fill="#757575" d="M143.014 25.491c-8.999 0-14.907 6.363-14.907 15.271s5.908 15.362 14.907 15.362c5.727 0 9.544-2.455 11.999-5.729l4.818 3.547c-3.636 5.272-9.635 8.454-16.999 8.454-12.544 0-21.18-9.091-21.18-21.635 0-12.545 8.635-21.543 21.18-21.543 7.363 0 13.362 3.182 16.999 8.363l-4.818 3.636c-2.364-3.271-6.273-5.726-11.999-5.726zM166.99 62.367V19.155h6.858l-.095 43.212h-6.763zM193.347 24.51v26.585c0 4.603 2.818 5.729 6.012 5.729h3.852v5.543h-6.294c-6.575 0-10.427-3.759-10.427-10.334V24.51h-6.012v-5.354h6.012V5.905h6.858v13.25h10.333v5.354h-10.334zM249.115 19.155l-24.047 60.496h-6.669l6.763-17.378-16.908-43.118h7.045l13.338 33.818 13.433-33.818h7.045zM292.562 40.762v2.734H261.04c1.001 6.559 5.647 10.658 11.843 10.658 5.83 0 9.202-2.641 10.932-5.103l6.741 4.921c-3.644 5.284-10.021 8.564-17.673 8.564-12.754 0-21.318-9.293-21.318-21.775 0-12.48 8.199-21.682 20.862-21.682 12.298.001 20.135 9.203 20.135 21.683zm-31.432-3.553h22.32c-1.093-5.921-4.827-10.385-11.023-10.385s-10.204 4.099-11.297 10.385zM322.224 40.761l15.688 21.606h-11.647l-9.864-13.621-9.864 13.621H294.89l15.688-21.606-15.688-21.606h11.647l9.864 13.621 9.864-13.621h11.647l-15.688 21.606zM386.713 40.794c0 12.688-8.396 21.632-20.079 21.632-5.842 0-10.314-2.373-13.235-6.115v22.18h-9.767V19.155h9.767v6.032c2.921-3.743 7.394-6.116 13.235-6.116 11.683 0 20.079 9.22 20.079 21.723zm-9.493 0c0-7.21-4.744-12.504-11.956-12.504-7.211 0-11.865 5.294-11.865 12.504s4.654 12.415 11.865 12.415c7.212 0 11.956-5.204 11.956-12.415zM433.33 40.762v2.734h-31.521c1.002 6.559 5.648 10.658 11.843 10.658 5.832 0 9.2-2.641 10.933-5.103l6.741 4.921c-3.645 5.284-10.021 8.564-17.674 8.564-12.754 0-21.318-9.293-21.318-21.775 0-12.48 8.2-21.682 20.863-21.682 12.298.001 20.133 9.203 20.133 21.683zm-31.431-3.553h22.318c-1.091-5.921-4.826-10.385-11.021-10.385s-10.204 4.099-11.297 10.385zM465.061 19.155v8.831c-5.073.094-15.219 1.691-15.219 13.433v20.948h-10.05V19.155h10.05v7.797c3.57-5.918 9.395-7.702 15.219-7.797zM485.777 26.858v22.17c0 4.885 3.006 5.448 5.824 5.448h3.287v7.891h-7.326c-7.985 0-11.931-4.228-11.931-11.743V26.858h-5.73v-7.703h5.73V5.91h10.146v13.245h9.581v7.703h-9.581z"/><path fill="#DF2D43" d="M72.955 36.919h28.29v25.526h-28.29zM39.007 5.974h28.29v56.472h-28.29zM5.06 19.155h28.29v43.29H5.06z"/><path fill="#757575" d="M166.99 5.974h6.858v6.857h-6.858z"/></svg>
